<?xml version="1.0" encoding="utf-8"?>
<!-- Generator: Adobe Illustrator 23.0.0, SVG Export Plug-In . SVG Version: 6.00 Build 0)  -->
<svg version="1.1" id="Layer_1" xmlns="http://www.w3.org/2000/svg" xmlns:xlink="http://www.w3.org/1999/xlink" x="0px" y="0px"
	 viewBox="0 0 1000 1000" style="enable-background:new 0 0 1000 1000;" xml:space="preserve">
<style type="text/css">
	.st0{fill:#FFFFFF;}
</style>
<path class="st0" d="M315.1,613.87c0,3.49,0,5.42,0,7.36c0,25.32-0.06,50.65,0.07,75.97c0.02,3.45-1,5.33-4.2,6.91
	c-9.84,4.85-19.46,10.16-29.2,15.22c-4.77,2.48-5.79,1.86-5.79-3.57c-0.02-89.8,0.01-179.6-0.08-269.4c0-4.14,1.38-5.55,5.51-5.45
	c9.49,0.23,19,0.25,28.49-0.01c4.31-0.12,5.61,1.6,5.25,5.58c-0.23,2.55-0.04,5.14-0.04,9.13c2.82-2.05,4.42-3.1,5.89-4.31
	c31.64-26.05,83.59-15.96,100.49,26.63c14.24,35.89,15.4,72.52,1.35,108.72c-9.14,23.55-26.35,38.86-51.84,43.53
	c-18.29,3.35-34.96-0.47-49.79-11.86C319.65,617.12,318.03,616,315.1,613.87z M314.97,533.75c0,11.16-0.15,22.33,0.12,33.48
	c0.06,2.4,1.12,5.23,2.67,7.06c7.05,8.3,15.95,14.05,26.31,17.39c18.58,5.98,35.27-2.08,42.41-20.29c3.89-9.93,5.02-20.3,5.02-30.84
	c0.01-15.19-0.44-30.36-6.55-44.61c-6.35-14.8-18.02-21.88-33.99-21.07c-15.3,0.77-25.61,10.06-35.03,20.71
	c-0.92,1.04-0.92,3.11-0.93,4.71C314.94,511.42,314.97,522.59,314.97,533.75z"/>
<path class="st0" d="M191.59,612.73c-10.15,7.81-19.56,13.73-30.63,16.31c-27.64,6.43-61.11-1.82-74.74-30.57
	c-15.85-33.44-6.64-81.64,45.75-90.34c19.82-3.29,39.36-2.43,58.61,3.2c5.86-12.3-2.11-30.59-15.44-35.59
	c-10.36-3.89-21.17-3.37-31.57-1.21c-9.5,1.97-18.66,5.71-27.79,9.15c-2.91,1.1-4.54,1.33-6.02-1.62
	c-3.95-7.89-7.96-15.75-12.04-23.57c-1.3-2.49-1.23-4.29,1.45-5.78c29.23-16.18,60.1-20.65,92.1-10.79
	c25.23,7.78,38.96,26.69,39.35,53.57c0.61,42.48,0.27,84.96,0.4,127.45c0.01,3.39-1.27,4.83-4.7,4.79
	c-9.83-0.1-19.66-0.15-29.49,0.02c-4,0.07-5.38-1.72-5.24-5.42C191.67,619.59,191.59,616.83,191.59,612.73z M191.59,561.29
	c0-1.83-0.27-3.71,0.05-5.48c1.03-5.78-1.79-8.29-7.03-9.78c-11.62-3.29-23.46-4.73-35.43-4.04c-5.68,0.33-11.54,1.7-16.84,3.8
	c-11.13,4.41-15.04,11.61-14.5,24.43c0.42,10.02,6.85,19.02,16.7,21.93c15.66,4.62,30.54,2.84,43.98-7.05
	C186.52,579.2,194.98,573.49,191.59,561.29z"/>
<path class="st0" d="M755.66,536.85c-0.63,19.43-3.71,39.31-14.98,56.77c-14.05,21.76-33.95,35.03-60.1,37.13
	c-46.87,3.76-73.97-23.86-84.67-58.56c-9.98-32.37-8.66-64.55,7.95-94.76c15.56-28.29,40.92-41.17,72.42-40.09
	c30.92,1.06,53.87,16.58,67.89,44.39C752.72,498.71,755.49,517.07,755.66,536.85z M716.34,534.25c0.22-10.67-1.49-21.8-6.12-32.28
	c-6.81-15.43-18.07-25.74-35.46-26.7c-16.58-0.91-29.11,7.27-36.61,21.56c-12.75,24.31-12.43,49.31-0.34,73.84
	c7.05,14.3,19.27,22.39,35.17,22.19c16.66-0.21,28.79-9.07,36.19-24.07C714.43,558.15,716.53,546.82,716.34,534.25z"/>
<path class="st0" d="M849.6,436.17c22.22,1.34,42.46,7.49,60.85,19.76c2.91,1.94,3.65,3.58,1.68,6.83
	c-4.4,7.25-8.55,14.67-12.48,22.19c-2.15,4.12-4.23,4.67-8.09,1.93c-14.84-10.53-31.39-15.05-49.55-13.03
	c-10.14,1.13-16.03,6.77-14.92,15.06c0.45,3.41,2.55,7.72,5.28,9.49c7.49,4.83,15.6,8.74,23.66,12.62
	c13.61,6.56,27.88,11.92,40.93,19.42c20.19,11.61,25.71,30.8,23.33,52.78c-2.89,26.82-21.61,41.66-47.6,46.35
	c-32.56,5.88-62.28-1.7-89.68-19.76c-3.66-2.41-4.06-4.5-1.78-8.07c4.48-7.01,8.8-14.14,12.86-21.4c2.1-3.75,4.1-3.87,7.52-1.63
	c17.03,11.16,35.56,17.22,56.14,15.4c4.41-0.39,8.83-1.45,13.06-2.79c6.06-1.92,9.84-6.22,10.4-12.7
	c0.55-6.37-2.06-11.84-7.53-14.75c-9.82-5.22-20.11-9.56-30.16-14.36c-11.53-5.51-23.47-10.35-34.42-16.85
	c-19.19-11.39-24.69-29.78-22.34-50.77c2.39-21.43,15.37-34.56,35.5-40.5C831.11,438.8,840.47,437.87,849.6,436.17z"/>
<path class="st0" d="M479.44,533.78c0-16.83-0.11-33.66,0.08-50.48c0.04-4.03-1-5.74-5.29-5.48c-5.31,0.32-10.66-0.01-15.99,0.1
	c-3.4,0.07-4.79-1.33-4.75-4.76c0.12-9.33,0.14-18.66-0.01-27.99c-0.05-3.41,1.53-4.32,4.56-4.26c5.33,0.1,10.67-0.16,15.99,0.08
	c4.03,0.18,5.57-1.1,5.5-5.37c-0.24-13.83,0.02-27.66-0.16-41.49c-0.04-3.31,1.08-5.13,3.96-6.64c9.58-5,19.03-10.27,28.56-15.38
	c5.98-3.21,6.96-2.57,6.96,4.45c0.01,19.66,0.11,39.32-0.08,58.98c-0.04,4.12,1.2,5.54,5.37,5.46c11.49-0.22,22.99,0.03,34.49-0.13
	c3.48-0.05,4.67,1.11,4.6,4.6c-0.18,9.16-0.23,18.33,0.01,27.49c0.11,4.12-1.62,5.06-5.35,5c-11.33-0.17-22.66,0.05-33.99-0.12
	c-3.71-0.06-5.33,0.76-5.31,4.95c0.17,30.49,0.1,60.98,0.1,91.47c0,0.67,0.04,1.33,0.07,2c0.5,14.55,7.65,20.42,22.12,17.37
	c6.1-1.29,12-3.74,17.83-6.08c3.57-1.43,4.77-0.39,4.35,3.04c-1.19,9.74-2.44,19.48-3.9,29.19c-0.21,1.39-1.42,3.21-2.66,3.78
	c-16.68,7.74-34.15,10.57-51.74,4.48c-16.67-5.78-23.52-19.91-24.36-36.31c-0.98-19.27-0.23-38.62-0.23-57.94
	C479.93,533.78,479.69,533.78,479.44,533.78z"/>
<polygon class="st0" points="619.89,406.49 671.72,354.66 721.46,406.49 "/>
</svg>
