<?xml version="1.0" encoding="utf-8"?>
<!-- Generator: Adobe Illustrator 23.0.0, SVG Export Plug-In . SVG Version: 6.00 Build 0)  -->
<svg version="1.1" id="Layer_1" xmlns="http://www.w3.org/2000/svg" xmlns:xlink="http://www.w3.org/1999/xlink" x="0px" y="0px"
	 viewBox="0 0 1000 1000" style="enable-background:new 0 0 1000 1000;" xml:space="preserve">
<style type="text/css">
	.st0{fill:#FFFFFF;}
</style>
<g>
	<path class="st0" d="M712.51,379.87c-0.14,115.78-93.45,208.09-210.2,207.95c-113.99-0.14-207.39-93.88-207.4-208.15
		c-0.01-115.53,93.96-208.16,210.99-207.98C619.53,171.86,712.64,265.68,712.51,379.87z M590.16,195.18
		c-0.11-0.73-0.22-1.45-0.33-2.18c-3.35-0.46-6.74-1.48-10.06-1.3c-59.24,3.26-110.26,24.74-148.85,70.71
		c-31.9,38.01-47.09,82.21-39.47,132.06c11.89,77.78,85.26,118.3,151.57,97.98c68.47-20.98,97.04-103.23,62.48-161.67
		c-15.27-25.83-38.99-40.65-67.15-48.99c-10.57-3.13-10.78-2.88-9.61-12.18c4.19-33.44,21.55-57,52.82-70.08
		C584.52,198.3,587.3,196.64,590.16,195.18z"/>
	<path class="st0" d="M372.54,674.32c0-6.08,0-12.41,0-18.74c0-6.77,0.17-13.55-0.06-20.32c-0.13-3.75,1.27-4.97,4.91-4.84
		c6.01,0.21,12.06,0.33,18.06-0.03c4.7-0.28,6.08,1.33,6.05,6.03c-0.18,33.49-0.1,66.98-0.1,100.48c0,12.23-0.08,24.46,0.05,36.69
		c0.04,3.29-0.63,5.24-4.35,5.76c-19.37,2.71-38.69,5.74-58.31,2.05c-32.02-6.03-44.91-29.64-43.62-57.81
		c0.94-20.74,9.84-37.32,29.22-46.8c13.27-6.49,27.22-6.33,41.32-3.15c1.65,0.37,3.27,0.85,4.92,1.2
		C370.95,674.9,371.33,674.65,372.54,674.32z M372.54,729c0-8.28,0.13-16.56-0.11-24.83c-0.05-1.77-0.95-4.26-2.29-5.13
		c-17.36-11.21-39.25-2.58-43.86,17.2c-0.68,2.91-0.92,5.95-1.07,8.95c-0.81,16.01,7.1,28.83,21.48,32.38
		c7.1,1.75,14.88,1.02,22.34,0.79c1.22-0.04,3.27-3.27,3.35-5.1C372.75,745.19,372.54,737.09,372.54,729z"/>
	<path class="st0" d="M495.66,771.55c-23.64,16.34-50.18,14.26-66.37-4.38c-23.17-26.67-13.9-72.86,17.65-88.68
		c17.25-8.65,35.25-7.9,53.45-4.83c6.09,1.02,12.03,2.93,18.06,4.31c3.23,0.74,4.58,2.41,4.56,5.88
		c-0.11,30.46-0.11,60.93-0.01,91.39c0.01,4.02-1.6,5.31-5.4,5.07c-3.56-0.23-7.17-0.31-10.71,0.02
		C500.68,780.89,495.43,780.43,495.66,771.55z M494.2,723.84c0-3.94,0-7.89,0-11.83c0-15.42,0-15.42-15.46-16.24
		c-13.72-0.73-25.74,7.23-30.02,20.08c-2.94,8.83-2.86,17.8,0.16,26.56c6.08,17.63,26.84,23.21,40.64,10.73
		c2.44-2.21,4.11-6.22,4.47-9.58C494.68,737.04,494.19,730.42,494.2,723.84z"/>
	<path class="st0" d="M169.96,727c0.04-33.25,22.54-55.95,55.48-55.96c33.33-0.01,56.16,22.77,56.15,56
		c-0.01,32.98-23.46,56.41-56.26,56.19C192.39,783.03,169.92,760.21,169.96,727z M251.85,727.28c-1.59-6.18-2.46-12.59-4.89-18.33
		c-3.81-9.02-11-13.85-21.18-13.95c-10.14-0.11-17.44,4.44-21.62,13.35c-5.71,12.17-5.83,24.77-0.43,37.09
		c4.06,9.24,11.52,14.32,21.7,14.31c10.41-0.01,18.04-5.16,21.86-14.8C249.46,739.47,250.3,733.47,251.85,727.28z"/>
	<path class="st0" d="M602.74,727.03c-0.04-33.55,22.4-56.01,55.94-55.98c33.08,0.03,55.64,22.76,55.48,55.91
		c-0.16,33.39-22.5,56.08-55.41,56.28C625.72,783.44,602.78,760.42,602.74,727.03z M685.43,727.59c-2.05-6.98-3.27-13.9-6.1-20.07
		c-3.92-8.56-11.29-12.59-20.92-12.54c-9.66,0.06-16.69,4.37-20.8,12.84c-6.37,13.11-6.38,26.51,0.27,39.54
		c4.2,8.23,11.46,12.35,20.63,12.39c9.17,0.03,16.69-3.95,20.6-12.29C682,741.31,683.32,734.43,685.43,727.59z"/>
	<path class="st0" d="M947.14,755.5c0,5.93,0.19,10.99-0.13,16.01c-0.08,1.29-1.48,3.12-2.72,3.63
		c-23.11,9.42-46.55,11.01-69.41,0.03c-19.11-9.18-25.65-26.45-26.02-46.55c-0.41-21.94,6.2-40.56,26.62-51.64
		c34.25-18.6,73.87,4.48,74.92,43.43c0.43,15.8,0.43,15.8-15.38,15.8c-16.55,0-33.1-0.02-49.65,0.02c-2.16,0-4.33,0.28-6.46,0.42
		c0.53,13.43,9.52,23.07,23.2,23.3c11.93,0.2,23.9-1.49,35.84-2.51C940.69,757.21,943.4,756.31,947.14,755.5z M924.56,715.77
		c-1.3-14.95-12.13-22.46-28.36-20.44c-10.38,1.29-18,10.78-16.18,20.44C894.72,715.77,909.46,715.77,924.56,715.77z"/>
	<path class="st0" d="M833.53,779.72c-9.37,0-18.5,0-28.1,0c-0.11-2.28-0.28-4.29-0.29-6.3c-0.02-16.93,0.03-33.87-0.03-50.8
		c-0.06-17.65-9.01-26.36-26.71-25.81c-4.67,0.14-9.32,1.48-13.99,1.55c-5.95,0.09-6.91,3.13-6.85,8.29
		c0.22,22.01,0.1,44.03,0.08,66.04c0,2.21-0.19,4.42-0.3,6.96c-9.37,0-18.28,0-27.6,0c-0.13-2.07-0.34-3.89-0.34-5.72
		c-0.02-29.73,0.07-59.46-0.11-89.19c-0.03-4.28,1.13-6.26,5.45-7.4c19.44-5.17,39.03-7.77,59.15-5.37
		c25.37,3.02,40.2,19.58,40.21,45.15c0.01,20.32-0.05,40.64-0.09,60.96C834.01,778.44,833.81,778.79,833.53,779.72z"/>
	<path class="st0" d="M49.49,674.25c10.41,0,20.34-0.18,30.26,0.2c1.48,0.06,3.51,2.5,4.19,4.27c7.31,18.94,14.4,37.97,21.57,56.96
		c0.9,2.38,1.96,4.71,3.47,8.31c1.26-2.69,2.02-4.08,2.57-5.54c7.43-19.9,14.9-39.79,22.15-59.76c1.22-3.37,2.88-4.67,6.5-4.56
		c8.63,0.25,17.28,0.08,27.02,0.08c-1.62,4.24-2.91,7.82-4.35,11.35c-12.16,29.97-24.43,59.89-36.43,89.92
		c-1.53,3.82-3.56,5-7.48,4.85c-7.14-0.29-14.32,0.15-21.45-0.24c-1.95-0.11-4.84-1.64-5.54-3.27
		c-13.97-32.67-27.69-65.44-41.43-98.21C50.07,677.47,49.95,676.17,49.49,674.25z"/>
	<path class="st0" d="M571.85,779.9c-9.76,0-18.72,0-28.37,0c-0.09-2.04-0.26-4.03-0.26-6.01c-0.02-36.15-0.04-72.3,0-108.45
		c0.02-24.36,14.71-38.66,39.06-37.89c5.62,0.18,11.25,0.88,16.8,1.78c1.37,0.22,3.48,2.08,3.53,3.26
		c0.33,7.1,0.16,14.21,0.16,21.97c-3.38-0.16-6.12-0.33-8.85-0.4c-3.75-0.1-7.56-0.54-11.25-0.09c-8.86,1.09-13.78,9.43-10.54,17.85
		c0.45,1.16,2.87,2.11,4.43,2.19c5.64,0.26,11.3,0.25,16.94,0.07c3.48-0.11,5.28,0.89,5.17,4.71c-0.16,5.64,0,11.29-0.02,16.94
		c0,0.73-0.23,1.45-0.5,3.01c-6.86,0-13.76,0.22-20.63-0.08c-4.5-0.2-5.8,1.46-5.76,5.86c0.18,22.78,0.08,45.56,0.08,68.34
		C571.85,775.15,571.85,777.36,571.85,779.9z"/>
</g>
</svg>
