<?xml version="1.0" encoding="utf-8"?>
<!-- Generator: Adobe Illustrator 23.0.0, SVG Export Plug-In . SVG Version: 6.00 Build 0)  -->
<svg version="1.1" id="Layer_1" xmlns="http://www.w3.org/2000/svg" xmlns:xlink="http://www.w3.org/1999/xlink" x="0px" y="0px"
	 viewBox="0 0 1000 1000" style="enable-background:new 0 0 1000 1000;" xml:space="preserve">
<style type="text/css">
	.st0{fill:#FFFFFF;}
</style>
<path class="st0" d="M349.4,683.25c-33.5,0-66.55,0-99.91,0c-20.65-68.29-41.29-136.56-61.93-204.82c-0.19,0-0.39,0-0.58,0
	c-13.99,68.17-27.65,136.41-41.26,204.99c-25.14-0.27-50.12,1.06-75.52-0.2c0.2-1.43,0.28-2.53,0.51-3.6
	c4.41-20.82,8.82-41.64,13.25-62.46c5.84-27.45,11.7-54.89,17.55-82.33c5.83-27.35,11.68-54.69,17.5-82.05
	c4.52-21.29,9-42.58,13.5-63.87c0.24-1.11,0.52-2.22,0.82-3.49c33.36,0,66.67,0,100.33,0c20.07,67.98,40.17,136.04,60.26,204.09
	c0.22,0,0.44,0,0.66,0c0.27-0.81,0.6-1.61,0.78-2.45c2.68-12.41,5.44-24.8,7.99-37.23c4.94-24.03,9.77-48.08,14.64-72.12
	c4.68-23.11,9.34-46.22,14.01-69.33c1.4-6.92,2.76-13.85,4.16-20.78c0.15-0.73,0.43-1.44,0.72-2.39c25,0.09,49.98-0.31,75.4,0.75
	C391.43,485.4,370.24,584.2,349.4,683.25z"/>
<path class="st0" d="M459.82,683.37c-1.37,0-2.31,0-3.26,0c-23.22-0.04-46.44-0.07-69.66-0.16c-2.34-0.01-4.69-0.39-7.4-0.63
	c20.63-99.35,41.17-198.24,61.73-297.21c26.91,0,53.54,0,80.55,0c-7.76,37.73-15.48,75.33-23.28,113.26
	c1.18,0.11,1.99,0.24,2.8,0.24c22.17-0.04,44.34-0.08,66.5-0.15c6.59-0.02,13.18-0.14,19.78-0.26c1.51-0.03,3.02-0.22,4.68-0.36
	c7.71-37.51,15.38-74.88,23.11-112.53c26.06-0.33,52.02-0.81,77.98,0.19c0.72,0.03,1.42,0.38,2.41,0.66
	c-20.52,98.79-41.01,197.42-61.58,296.4c-25.28,0.82-50.49,0.61-75.69,0.31c-1.48-0.02-2.96-0.44-4.71-0.71
	c4.37-21.11,8.68-41.93,12.97-62.74c4.28-20.82,8.73-41.6,12.71-62.96c-2.64-0.21-4.89-0.52-7.13-0.55
	c-8.5-0.13-17.01-0.23-25.51-0.25c-19.21-0.03-38.41-0.01-57.62-0.01c-0.85,0-1.71,0-2.91,0
	C477.48,598.37,468.68,640.73,459.82,683.37z"/>
<path class="st0" d="M660.34,673.1c6.26-20.18,12.41-40.02,18.67-60.22c1.53,0.54,2.72,0.81,3.78,1.35
	c12.24,6.14,25.28,9.69,38.69,12.01c14.73,2.54,29.57,3.76,44.51,2.5c9.81-0.83,19.58-2.22,28.7-6.2c3.3-1.44,6.5-3.24,9.49-5.26
	c9.28-6.24,12.43-15.3,11.51-26.1c-0.6-6.99-4-12.43-9.3-16.82c-4.15-3.43-8.68-6.3-13.57-8.5c-10.18-4.57-20.45-8.95-30.73-13.31
	c-11.53-4.89-22.9-10.05-33.29-17.18c-13.21-9.06-22.18-21.11-26.06-36.76c-1.47-5.96-2.02-12.04-2.05-18.17
	c-0.05-11.14,0.77-22.2,4.63-32.73c5.99-16.36,14.91-30.7,29.37-41.09c10.95-7.87,22.72-14.03,35.63-17.99
	c14.22-4.37,28.76-6.87,43.6-7.69c17.1-0.95,34.19-0.83,51.28,0.18c17.3,1.02,34.37,3.52,50.98,8.66c2.19,0.68,4.36,1.4,6.49,2.25
	c2.44,0.98,2.7,1.63,1.86,4.19c-1.75,5.35-3.58,10.68-5.32,16.04c-4.05,12.43-8.06,24.88-12.09,37.31c-0.32,0.99-0.67,1.98-1.11,3.3
	c-1.61-0.54-3.14-0.96-4.59-1.56c-8.33-3.4-16.85-6.14-25.68-7.93c-16.56-3.36-33.25-4.75-50.14-3.35
	c-7.35,0.61-14.63,1.49-21.71,3.6c-4.52,1.34-8.78,3.24-12.48,6.22c-4.95,3.99-7.62,9.04-8.02,15.5c-0.49,8,2.18,14.35,8.51,19.27
	c5.63,4.38,11.89,7.64,18.37,10.47c8.31,3.63,16.75,6.95,25.1,10.49c8.89,3.77,17.57,7.95,25.81,13.02
	c9.02,5.55,17.27,12.02,23.55,20.66c7.99,10.98,12.78,23.12,13.35,36.87c0.44,10.63,0.27,21.18-1.71,31.68
	c-3.16,16.75-11.05,30.93-22.82,43.16c-9.93,10.31-21.75,17.65-34.85,23.11c-15.08,6.28-30.85,9.92-46.99,12.15
	c-15.29,2.11-30.66,2.31-46.04,1.83c-7.54-0.24-15.09-0.48-22.59-1.22c-12.65-1.25-25.09-3.86-37.45-6.77
	c-7.43-1.74-14.76-3.91-22.12-5.9C662.58,673.92,661.7,673.57,660.34,673.1z"/>
</svg>
