<?xml version="1.0" encoding="utf-8"?>
<!-- Generator: Adobe Illustrator 23.0.0, SVG Export Plug-In . SVG Version: 6.00 Build 0)  -->
<svg version="1.1" id="Layer_1" xmlns="http://www.w3.org/2000/svg" xmlns:xlink="http://www.w3.org/1999/xlink" x="0px" y="0px"
	 viewBox="0 0 1000 1000" style="enable-background:new 0 0 1000 1000;" xml:space="preserve">
<style type="text/css">
	.st0{fill:#FFFFFF;}
</style>
<path class="st0" d="M965.86,680.14c-1.7,0.1-3.12,0.26-4.55,0.26c-20.62,0.02-41.23-0.05-61.85,0.08
	c-3.31,0.02-4.81-0.67-5.49-4.34c-2.23-12.02-5.16-23.92-7.46-35.93c-0.63-3.3-2.15-3.78-4.97-3.78
	c-30.11,0.06-60.21,0.08-90.32-0.03c-3.06-0.01-4.2,1.2-5.15,3.88c-4.34,12.3-8.97,24.5-13.32,36.8c-0.84,2.36-1.87,3.39-4.48,3.38
	c-25.03-0.09-50.07-0.07-75.1-0.1c-0.47,0-0.94-0.2-1.96-0.42c2.9-7.02,5.72-13.92,8.6-20.79
	c35.06-83.48,70.15-166.94,105.17-250.43c6.61-15.76,18.31-23.68,35.38-23.7c19.63-0.01,39.27,0.11,58.9-0.09
	c3.94-0.04,5.14,1.31,5.91,5.05c17.1,82.09,34.36,164.14,51.58,246.2C959.82,650.71,962.78,665.24,965.86,680.14z M850.13,466.79
	c-0.29-0.01-0.58-0.02-0.86-0.02c-13.16,36.19-26.32,72.39-39.58,108.85c21.4,0,41.97,0,63.22,0
	C865.26,539.09,857.7,502.94,850.13,466.79z"/>
<path class="st0" d="M17.55,393.74c1.63-9.81,0.11-8.67,8.97-8.68c38.95-0.04,77.91,0.49,116.84-0.22
	c24.37-0.44,38.55,11.8,42.93,36.2c9.7,53.97,20.2,107.79,30.37,161.67c0.08,0.43,0.25,0.85,0.69,2.36c1-2.43,1.67-3.99,2.3-5.57
	c25.13-63.22,50.29-126.42,75.27-189.7c1.45-3.67,3.12-4.9,7.03-4.87c23.24,0.19,46.48,0.1,69.71,0.11c1.6,0,3.2,0.13,5.5,0.24
	c-0.75,2.07-1.26,3.7-1.92,5.27c-40.04,95.2-80.11,190.4-120.05,285.64c-1.36,3.23-2.94,4.32-6.41,4.3
	c-23.73-0.15-47.46-0.17-71.19,0.01c-4.06,0.03-5.88-0.97-6.97-5.2c-19.56-76.14-39.32-152.23-59.04-228.34
	c-0.7-2.68-1.43-5.36-2.16-8.03c-2.52-9.21-8.15-15.72-16.65-20.1c-18.99-9.8-39.28-15.86-59.79-21.34
	C27.98,396.15,22.89,395.03,17.55,393.74z"/>
<path class="st0" d="M709.09,393.07c-4.43,20.7-8.82,41.24-13.22,61.8c-9.3-3-18.22-6.45-27.43-8.74
	c-19.36-4.82-38.93-6.98-58.61-1.59c-6.73,1.84-12.72,5.09-17.35,10.49c-6.32,7.38-6.78,17.13,0.07,23.96
	c5.25,5.23,11.44,9.78,17.83,13.57c12.92,7.65,26.42,14.31,39.38,21.89c12.49,7.31,23.84,16.2,32.32,28.17
	c15.48,21.86,16.03,45.81,8.43,70.26c-9.08,29.23-30.08,47.64-57.47,59.19c-27.66,11.67-56.76,14.53-86.5,12.49
	c-20.6-1.41-40.86-4.66-60.49-11.25c-3.21-1.08-6.33-2.42-9.88-3.8c4.65-21.68,9.22-42.99,13.88-64.76
	c3.53,1.54,6.66,2.84,9.74,4.27c22.97,10.67,47.15,15.25,72.38,14.11c11.2-0.51,22.09-2.82,31.52-9.39
	c13.52-9.42,15.17-25.6,2.69-36.23c-7.98-6.8-17.59-11.7-26.61-17.23c-13.89-8.51-28.58-15.91-41.7-25.47
	c-16.04-11.68-27.41-27.49-29.59-47.86c-3.09-28.86,6.57-53.41,27.81-73.2c18.39-17.14,40.76-26.29,65.07-30.82
	c35.99-6.72,71.24-3.29,105.63,9.14C707.45,392.23,707.88,392.48,709.09,393.07z"/>
<path class="st0" d="M346.97,680.13c21.16-98.6,42.2-196.65,63.26-294.79c25.61,0,50.88,0,76.79,0
	c-21.13,98.48-42.16,196.51-63.25,294.79C398.32,680.13,373.03,680.13,346.97,680.13z"/>
</svg>
