<?xml version="1.0" encoding="utf-8"?>
<!-- Generator: Adobe Illustrator 23.0.0, SVG Export Plug-In . SVG Version: 6.00 Build 0)  -->
<svg version="1.1" id="Layer_1" xmlns="http://www.w3.org/2000/svg" xmlns:xlink="http://www.w3.org/1999/xlink" x="0px" y="0px"
	 viewBox="0 0 1000 1000" style="enable-background:new 0 0 1000 1000;" xml:space="preserve">
<style type="text/css">
	.st0{fill:#FFFFFF;}
</style>
<path class="st0" d="M501.97,901.03c-26.02-0.5-51.65-3.37-77.04-8.24c-30.82-5.91-60.49-15.56-89.06-28.58
	c-49.63-22.61-92.68-54.25-129.43-94.45c-26.34-28.81-48.12-60.75-64.93-96.05c-1.74-3.66-0.95-5.22,2.57-6.81
	c12.15-5.45,24.21-11.09,36.21-16.86c3.62-1.74,5.24-1.35,7.17,2.59c15.18,30.97,34.32,59.21,57.82,84.61
	c24.08,26.03,51.32,47.9,81.89,65.71c29.52,17.2,60.98,29.55,94.23,37.37c20.79,4.89,41.82,7.65,63.17,8.91
	c31.34,1.84,62.26-0.94,92.74-7.65c39.97-8.81,77.33-24.32,111.89-46.46c38.61-24.74,71.57-55.47,97.58-93.21
	c10.92-15.84,19.99-32.97,29.51-49.74c1.91-3.36,3.31-3.83,6.51-2.31c12.31,5.87,24.66,11.68,37.09,17.28
	c3.78,1.7,3.74,3.72,2.14,6.99c-16.46,33.51-36.95,64.27-61.76,92.21c-22.02,24.8-46.78,46.48-74.16,65.06
	c-29.46,20-61.08,35.86-94.87,47.29c-25.11,8.5-50.7,14.97-77.08,17.82C536.81,898.41,519.37,899.56,501.97,901.03z"/>
<path class="st0" d="M139.11,331.63c5.49-10.36,10.39-20.34,15.94-29.95c28.54-49.41,65.82-90.9,111.97-124.6
	c37.54-27.41,78.65-47.47,123.05-60.53c43.14-12.69,87.39-17.08,132.35-14.93c29.75,1.42,58.87,6.13,87.52,14.14
	c61.25,17.13,115.19,47.41,162.1,90.22c32.62,29.78,59.43,64.19,80.58,102.98c3.42,6.28,6.56,12.72,9.82,19.09
	c1.38,2.69,1.03,4.43-2.1,5.82c-12.62,5.62-25.17,11.41-37.65,17.35c-3.38,1.61-4.88,0.89-6.49-2.45
	c-28.28-58.31-69.65-105.08-123.76-140.76c-33.59-22.15-70.03-37.62-108.96-47.13c-34.99-8.55-70.58-11.37-106.56-8.79
	c-38.32,2.75-75.29,11.44-110.62,26.39c-35.98,15.22-68.56,36.01-97.7,62.21c-31.05,27.91-56.02,60.5-76.04,97
	c-2.08,3.79-3.81,7.78-5.53,11.75c-1.06,2.46-2.51,3.42-5.06,2.23C168.1,345.19,154.24,338.7,139.11,331.63z"/>
<path class="st0" d="M360.12,457.78c0-35.31,0.07-70.63-0.09-105.94c-0.02-4.82,0.96-7.16,6.38-7.51
	c10.62-0.69,21.19-2.09,31.77-3.35c3.47-0.41,4.14,0.93,4.13,4.18c-0.1,23.99,0.01,47.97,0.04,71.96c0.01,6.47-0.02,6.23,6.37,5.77
	c11.58-0.83,23.24-2.34,34.77-1.73c18.72,0.98,34.99,8.02,45.83,24.31c7.27,10.93,10.26,23.42,11.67,36.26
	c1.89,17.14,1.74,34.28-2.37,51.12c-5.04,20.6-16.71,35.73-37.43,42.51c-14.72,4.82-30.09,6.76-45.36,5.08
	c-16.63-1.82-33.04-5.63-49.57-8.46c-4.85-0.83-6.3-3.42-6.27-8.26c0.18-35.31,0.1-70.63,0.1-105.94
	C360.11,457.78,360.11,457.78,360.12,457.78z M402.38,500.18c-0.01,0-0.03,0-0.04,0c0,11.83,0.12,23.67-0.06,35.5
	c-0.07,4.43,1.16,6.87,6.02,7.04c7.79,0.27,15.6,1.62,23.34,1.24c11.01-0.54,19.37-5.96,23.03-16.85
	c5.79-17.27,5.25-34.79,0.55-52.12c-2.19-8.09-7.77-14.01-16.03-16.55c-11.37-3.48-22.77-2.09-33.99,0.84
	c-1.28,0.33-2.65,3.2-2.68,4.91C402.27,476.18,402.38,488.18,402.38,500.18z"/>
<path class="st0" d="M213.61,461.31c1.04-10.86,1.95-21.27,3.17-31.65c0.14-1.18,1.9-2.78,3.18-3.11
	c24.96-6.53,50.21-8.82,75.49-2.52c24.85,6.19,36.29,20.37,36.84,46.51c0.66,31.8,0.14,63.62,0.24,95.43c0.01,3.06-1.13,4.34-4,5.2
	c-26.75,8.01-53.94,12.02-81.78,7.99c-12.25-1.77-24.11-5.15-33.22-14.56c-5.64-5.83-9.05-12.85-10.2-20.68
	c-1.94-13.25-2.64-26.56,3.68-39.07c6.58-13.03,18.39-18.61,31.86-20.37c14.82-1.94,29.8-2.62,44.73-3.65
	c6.66-0.46,7.02-0.6,6.53-7.31c-0.77-10.76-5.13-15-16.36-16.35c-17.1-2.06-33.85,0.7-50.62,3.34c-2.3,0.36-4.59,0.84-6.89,1.17
	C215.65,461.75,214.99,461.51,213.61,461.31z M290.15,526.76c0.03,0,0.06,0,0.08,0c0-3.82-0.21-7.66,0.06-11.46
	c0.26-3.75-1.17-5.07-4.85-4.77c-9.11,0.73-18.27,0.95-27.33,2.04c-5.25,0.63-10.94,2.18-12.48,8.31
	c-2.78,11.08-0.1,20.59,13.55,23.56c9.42,2.05,18.53,0.27,27.73-0.69c1.21-0.13,2.95-2.54,3.09-4.02
	C290.42,535.43,290.15,531.08,290.15,526.76z"/>
<path class="st0" d="M682.81,461.98c1.11-11.32,1.95-21.55,3.28-31.72c0.2-1.51,2.5-3.44,4.19-3.94
	c19.57-5.79,39.67-6.97,59.82-5.06c15.91,1.51,31.28,5.3,42.01,18.85c8.14,10.29,9.47,22.48,9.51,34.94
	c0.1,29.81-0.01,59.62,0.15,89.43c0.02,4.13-1.26,6.24-5.37,7.33c-26.56,7-53.35,11.63-80.87,7.27
	c-17.38-2.75-33.32-8.56-40.38-26.66c-5.28-13.54-5.2-27.61-1.28-41.67c3.16-11.31,10.47-18.88,21.17-22.83
	c6.49-2.39,13.42-4.13,20.29-4.83c12.57-1.29,25.24-1.79,37.88-2.23c4.66-0.16,6.52-1.53,6.17-6.45c-0.77-11.13-4.08-15.01-15.02-17
	c-13.53-2.46-26.9-0.28-40.27,1.22C697.35,459.39,690.67,460.72,682.81,461.98z M759.29,527.01c0.02,0,0.04,0,0.06,0
	c0-4.33-0.03-8.66,0.01-12.99c0.03-2.7-0.93-3.88-3.9-3.62c-9.11,0.78-18.26,1.22-27.37,1.96c-7.53,0.61-11.67,3.75-13.46,9.79
	c-3.21,10.83,2.16,19.56,13.1,22.19c9.7,2.33,19.21,0.62,28.75-0.62c1.08-0.14,2.58-2.37,2.69-3.73
	C759.51,535.68,759.29,531.34,759.29,527.01z"/>
<path class="st0" d="M641.24,461.44c-13.96-1.68-26.6-3.74-39.33-4.54c-8.73-0.55-17.6,0.28-26.33,1.24
	c-4.88,0.54-9.16,3.09-10.34,8.69c-1.85,8.84,1.47,13.39,10.56,13.99c10.8,0.71,21.65,0.85,32.41,1.93
	c6.56,0.66,13.2,2.01,19.43,4.14c12.62,4.31,20.36,13.57,23.28,26.49c2.41,10.67,2.46,21.56-0.03,32.22
	c-4.4,18.92-18,28.19-35.82,31.84c-27.22,5.57-54.28,4.41-81-3.54c-4.11-1.22-5.81-3.24-6-7.69c-0.35-8.14-1.41-16.25-2.4-24.34
	c-0.45-3.66,0.12-4.9,4.21-3.73c20.38,5.85,41.24,7.15,62.29,5.78c3.11-0.2,6.26-1.03,9.23-2.05c6.18-2.11,9.39-7.93,8.47-14.68
	c-0.93-6.77-5.11-10.62-12.54-11.08c-12.46-0.77-25-0.79-37.38-2.22c-6.95-0.8-14.01-3.01-20.37-5.98
	c-11.69-5.48-16.3-16.01-17.14-28.34c-1.19-17.56,0.54-34.66,16.14-45.74c7.35-5.22,16.51-8.91,25.37-10.78
	c23.5-4.95,47.02-2.82,70.16,3.3c1.27,0.33,3.19,1.42,3.31,2.35C638.87,439.53,640.01,450.39,641.24,461.44z"/>
<path class="st0" d="M101.86,507.28c0.64-43.9,4.96-80.63,15.7-116.45c2.29-7.64,4.9-15.19,7.03-22.88
	c1.07-3.86,2.99-4.11,6.26-2.89c12.45,4.66,24.89,9.36,37.46,13.65c4.21,1.43,4.89,3.32,3.66,7.33
	c-3.66,11.89-7.33,23.8-10.35,35.87c-7.55,30.24-9.69,61.06-8.73,92.13c1.07,34.68,7.6,68.33,19.1,101.04
	c1.21,3.45,1.12,5.54-3.29,7.01c-12.61,4.19-25.02,8.99-37.44,13.76c-3.63,1.39-5.3,1.19-6.77-3.06
	c-9.48-27.27-16.2-55.17-19.32-83.86C103.43,532.91,102.59,516.79,101.86,507.28z"/>
<path class="st0" d="M899.74,490.18c2.37,31.94-0.29,63.61-7.14,94.77c-3.63,16.51-9.19,32.6-13.82,48.9
	c-0.84,2.95-2.19,3.49-5.11,2.4c-13.4-5.02-26.85-9.89-40.34-14.63c-3.8-1.33-2.46-3.96-1.85-6.11c2.91-10.22,6.33-20.3,9.05-30.57
	c6.6-24.87,9.72-50.24,10.38-75.96c0.78-30.3-2.39-60.19-9.33-89.64c-2.55-10.8-6-21.41-9.37-32c-2.13-6.69-2.39-6.58,4.45-9.06
	c11.88-4.3,23.79-8.52,35.6-13.02c3.74-1.42,5.52-1.04,6.97,3.15c10.38,30,17.15,60.8,20.35,92.33
	C900.57,470.46,899.74,480.36,899.74,490.18z"/>
</svg>
