<?xml version="1.0" encoding="utf-8"?>
<!-- Generator: Adobe Illustrator 23.0.0, SVG Export Plug-In . SVG Version: 6.00 Build 0)  -->
<svg version="1.1" id="Layer_1" xmlns="http://www.w3.org/2000/svg" xmlns:xlink="http://www.w3.org/1999/xlink" x="0px" y="0px"
	 viewBox="0 0 1000 1000" style="enable-background:new 0 0 1000 1000;" xml:space="preserve">
<style type="text/css">
	.st0{fill:#FFFFFF;}
</style>
<g>
	<path class="st0" d="M897.62,562.59c0.19,3.45,0.37,6.66,0.57,10.08c-6.86,0-13.58,0-20.56,0c0,19.62,0,39.03,0,58.59
		c-4.03,0-7.79,0-11.74,0c0-19.4,0-38.77,0-58.31c-7.09,0-14.01,0-21.1,0c0,19.36,0,38.72,0,58.44c-2.21,0-4.26,0-6.31,0
		c-2.59,0-5.18-0.08-7.76,0.03c-1.49,0.07-2.26-0.43-2.96-1.79c-8.08-15.67-16.23-31.3-24.37-46.94c-0.46-0.89-0.93-1.77-1.74-2.62
		c0,17,0,34,0,51.16c-19.86,0-39.43,0-59.17,0c0-22.83,0-45.69,0-68.67c12.43,0,24.76,0,37.27,0c0,3.35,0,6.67,0,10.15
		c-8.46,0-16.84,0-25.39,0c0,6.35,0,12.55,0,18.96c6.84,0,13.71,0,20.75,0c0,3.52,0,6.84,0,10.34c-6.88,0-13.74,0-20.76,0
		c0,6.38,0,12.59,0,18.93c11.82,0,23.63,0,35.75,0c0-19.44,0-38.85,0-58.5c5.24,0,10.18-0.06,15.11,0.08
		c0.62,0.02,1.41,1.04,1.79,1.76c8.33,16.26,16.61,32.55,24.91,48.83c0.34,0.66,0.73,1.3,1.48,1.83c0-17.4,0-34.81,0-52.36
		C854.88,562.59,876.16,562.59,897.62,562.59z"/>
	<path class="st0" d="M431.87,631.21c0-22.94,0-45.75,0-68.66c12.45,0,24.77,0,37.25,0c0,3.36,0,6.68,0,10.22
		c-8.49,0-16.93,0-25.49,0c0,6.36,0,12.5,0,18.88c6.89,0,13.74,0,20.78,0c0,3.54,0,6.86,0,10.38c-6.87,0-13.73,0-20.75,0
		c0,6.4,0,12.6,0,18.93c12.11,0,24.13,0,36.33,0c0-19.45,0-38.82,0-58.05c0.29-0.22,0.4-0.39,0.51-0.38
		c10.46,0.15,21-1.09,31.34,1.23c8.54,1.92,14.32,9.41,14.45,18.06c0.13,8.56-5.4,16.41-13.16,18.68c-0.75,0.22-1.51,0.38-2.65,0.66
		c6.14,10.07,12.18,19.99,18.42,30.23c-4.63,0-8.91,0.05-13.18-0.07c-0.55-0.02-1.22-0.86-1.58-1.47
		c-4.93-8.24-9.92-16.46-14.66-24.81c-1.36-2.4-2.93-3.45-5.6-2.97c-0.55,0.1-1.13,0.01-1.9,0.01c0,9.75,0,19.35,0,29.13
		C471.85,631.21,451.93,631.21,431.87,631.21z M492.02,592.19c4.06,0,7.99,0.08,11.92-0.04c1.55-0.05,3.14-0.37,4.61-0.86
		c4.17-1.4,6.08-4.59,5.96-9.59c-0.1-4.11-2.2-7.28-6.44-7.98c-5.24-0.86-10.61-0.91-16.05-1.32
		C492.02,579.36,492.02,585.72,492.02,592.19z"/>
	<path class="st0" d="M652.31,524.93c-4.61,0-8.76,0.06-12.91-0.07c-0.63-0.02-1.44-0.78-1.81-1.41
		c-4.88-8.19-9.76-16.38-14.46-24.67c-1.19-2.1-2.54-3.06-4.91-2.68c-0.83,0.13-1.7,0.02-2.77,0.02c0,9.61,0,19.05,0,28.65
		c-20,0-39.78,0-59.84,0c0-0.78,0-1.55,0-2.32c0-21.12,0.03-42.24-0.05-63.35c-0.01-2.11,0.61-2.62,2.65-2.6
		c10.85,0.1,21.69,0.05,32.54,0.05c0.7,0,1.41,0,2.28,0c0,3.31,0,6.43,0,9.71c-8.59,0-17.11,0-25.82,0c0,6.56,0,12.96,0,19.61
		c3.2,0,6.34,0,9.48,0c3.23,0,6.46,0.01,9.7,0c0.91,0,1.74-0.02,1.72,1.29c-0.04,2.72-0.01,5.44-0.01,8.38c-7.02,0-13.87,0-20.9,0
		c0,6.57,0,12.91,0,19.45c11.96,0,23.96,0,36.22,0c0-0.91,0-1.75,0-2.59c0-17.81,0.03-35.63-0.04-53.44
		c-0.01-1.85,0.41-2.49,2.37-2.44c7.82,0.19,15.66,0.07,23.48,0.34c6.71,0.23,12.71,2.45,16.95,7.96
		c7.65,9.94,2.73,25.12-9.46,29.48c-0.87,0.31-1.75,0.57-2.83,0.93c3.09,5,6.09,9.86,9.1,14.71
		C646,514.77,649.03,519.63,652.31,524.93z M615.48,466.69c0,6.22,0,12.56,0,18.77c5.03,0,10.01,0.48,14.85-0.13
		c5.69-0.71,7.73-3.96,7.52-10.06c-0.17-4.82-3-8.07-8.22-8.5C625.02,466.39,620.35,466.69,615.48,466.69z"/>
	<path class="st0" d="M390.01,456.68c0,5.47,0,10.71,0,15.95c0,5.2,0,10.41,0,15.61c0.15,0.05,0.3,0.1,0.45,0.15
		c2.73-3.64,5.46-7.28,8.18-10.93c4.81-6.44,9.63-12.87,14.39-19.34c0.86-1.17,1.77-1.65,3.22-1.61c3.78,0.1,7.57,0.03,11.89,0.03
		c-8.92,11.38-17.52,22.35-26.22,33.45c6.43,8.12,12.83,16.21,19.47,24.61c0.5-1.32,0.91-2.35,1.26-3.38
		c6.06-17.59,12.14-35.17,18.15-52.78c0.51-1.49,1.21-1.98,2.76-1.93c3.73,0.11,7.47,0.07,11.2,0.02c1.16-0.02,1.76,0.29,2.17,1.49
		c7.52,21.85,15.1,43.69,22.66,65.53c0.14,0.39,0.19,0.81,0.3,1.31c-4.04,0-7.97,0-12.17,0c-1.32-3.82-2.67-7.71-4.01-11.6
		c-0.72-2.1-1.52-4.17-2.13-6.3c-0.34-1.2-0.96-1.51-2.15-1.5c-7.33,0.05-14.65,0.07-21.98-0.01c-1.35-0.01-1.84,0.52-2.23,1.67
		c-1.79,5.36-3.7,10.68-5.44,16.06c-0.42,1.3-0.95,1.83-2.37,1.79c-3.52-0.1-7.04,0.05-10.55-0.1c-0.89-0.04-2.04-0.61-2.58-1.32
		c-7.41-9.69-14.74-19.44-22.08-29.18c-0.58-0.77-1.17-1.53-2.13-2.78c0,11.43,0,22.23,0,33.18c-3.95,0-7.71,0-11.63,0
		c0-22.64,0-45.29,0-68.09C382.2,456.68,385.97,456.68,390.01,456.68z M457.88,495.5c-3.2-9.25-6.34-18.34-9.48-27.43
		c-0.16,0.02-0.32,0.04-0.47,0.06c-2.97,9.07-5.93,18.14-8.95,27.37C445.34,495.5,451.48,495.5,457.88,495.5z"/>
	<path class="st0" d="M174.73,440c-3.79-0.67-7.66-1.06-11.35-2.07c-8.42-2.3-14.03-7.86-16.9-16.04
		c-2.71-7.76-3.06-15.71-0.99-23.7c2.88-11.11,11.16-18.35,22.51-19.87c5.98-0.8,11.87-0.58,17.64,1.23
		c11.05,3.47,16.93,11.27,18.47,22.5c0.87,6.32,0.37,12.59-1.65,18.69c-3.88,11.7-13.41,18.66-25.72,18.82c-0.65,0.01-1.29,0-1.94,0
		C174.78,439.71,174.76,439.85,174.73,440z"/>
	<path class="st0" d="M548.56,631.29c-4.16,0-7.95,0-11.87,0c0-22.9,0-45.7,0-68.7c0.63-0.05,1.25-0.15,1.86-0.15
		c5.75-0.01,11.49,0.05,17.24-0.04c1.54-0.02,2.04,0.48,2.38,1.96c3.65,15.61,7.38,31.2,11.1,46.79c0.03,0.14,0.1,0.26,0.34,0.84
		c4.14-16.72,8.19-33.06,12.25-49.44c6.69,0,13.27,0,19.98,0c0,22.92,0,45.72,0,68.68c-3.63,0-7.25,0-11.11,0
		c0-18.89,0-37.79,0-56.68c-0.18-0.03-0.36-0.05-0.54-0.08c-4.82,18.94-9.65,37.87-14.48,56.84c-4.15,0-8.16,0-12.38,0
		c-4.81-18.87-9.61-37.76-14.42-56.64c-0.12,0.01-0.24,0.02-0.36,0.03C548.56,593.5,548.56,612.3,548.56,631.29z"/>
	<path class="st0" d="M56.76,432.41c-0.31-7.66,1.73-14.45,7.41-19.88c11.27-10.76,31.89-9.51,41.16,2.52
		c3.06,3.98,4.7,8.54,4.84,13.53c0.11,4.14,0.33,8.37-0.35,12.41c-1.47,8.83-6.97,14.6-15.29,17.54
		c-8.86,3.12-17.54,2.39-25.68-2.33c-7.82-4.54-11.54-11.66-12.09-20.56C56.7,434.57,56.76,433.49,56.76,432.41z"/>
	<path class="st0" d="M729.85,631.39c-5.01,0-9.89,0.06-14.76-0.07c-0.66-0.02-1.52-0.91-1.89-1.6
		c-6.64-12.53-13.21-25.1-19.8-37.66c-2.02-3.85-4.05-7.69-6.51-11.47c0,16.86,0,33.72,0,50.69c-3.92,0-7.55,0-11.3,0
		c0-22.93,0-45.79,0-68.83c5.1,0,10.04-0.07,14.98,0.08c0.62,0.02,1.39,1.06,1.77,1.8c8.43,16.28,16.81,32.59,25.19,48.89
		c0.22,0.44,0.46,0.87,1.11,1.24c0-17.26,0-34.52,0-51.9c3.89,0,7.45,0,11.2,0C729.85,585.41,729.85,608.26,729.85,631.39z"/>
	<path class="st0" d="M126.92,577.45c-26.94-31.34-53.88-62.69-80.89-94.12c5.24-7.6,12.29-12.61,21.01-15.24
		c2.72-0.82,5.62-1.08,8.41-1.68c1.48-0.32,2.14,0.26,2.74,1.59c10.35,23.14,20.75,46.25,31.14,69.37
		c5.66,12.61,11.33,25.21,16.99,37.82c0.31,0.69,0.59,1.39,0.89,2.09C127.11,577.33,127.02,577.39,126.92,577.45z"/>
	<path class="st0" d="M285.65,451.48c0.26,7.81-1.79,14.56-7.69,19.71c-13.91,12.13-40.62,6.27-44.19-13.97
		c-1.76-9.99-0.47-19.55,7.63-26.67c8.72-7.67,18.91-8.67,29.35-4.22c10.18,4.34,14.65,12.77,14.9,23.63
		C285.66,450.53,285.65,451.11,285.65,451.48z"/>
	<path class="st0" d="M191.56,447.28c-5.78,39.78-11.52,79.31-17.27,118.84c-0.13,0.02-0.25,0.03-0.38,0.05
		c-0.37-2.29-0.77-4.57-1.1-6.87c-2.07-14.32-4.11-28.64-6.18-42.96c-1.93-13.33-3.91-26.64-5.86-39.97
		c-1.34-9.14-2.66-18.29-3.99-27.43c-0.14-0.99-0.09-1.73,1.15-2.12C169.11,443.35,180.21,443.67,191.56,447.28z"/>
	<path class="st0" d="M293.4,497.18c-25.05,27.25-50.06,54.46-75.07,81.66c-0.12-0.06-0.23-0.12-0.35-0.18
		c0.2-0.54,0.36-1.09,0.6-1.61c13.7-30.65,27.41-61.3,41.07-91.97c0.6-1.35,1.26-1.75,2.71-1.65
		C274.32,484.2,284.79,488.3,293.4,497.18z"/>
	<path class="st0" d="M114.17,587.76c-10.77-8.35-21.55-16.71-32.32-25.06c-15.08-11.7-30.16-23.4-45.22-35.14
		c-0.61-0.48-1.37-1.27-1.39-1.93c-0.37-12.16,0.85-24.06,6.31-35.18c0.53-1.08,1.12-2.13,1.87-3.56
		c23.84,33.71,47.48,67.14,71.12,100.57C114.42,587.56,114.29,587.66,114.17,587.76z"/>
	<path class="st0" d="M81.53,465.79c11.86-0.15,22.57,1.86,31.55,9.56c4.49,3.85,7.18,8.86,9.24,14.29
		c4.46,11.75,7.18,23.98,9.8,36.22c3.14,14.7,6.07,29.44,9.08,44.16c0.04,0.2,0.01,0.42-0.5,0.91
		C121.05,536.02,101.39,501.09,81.53,465.79z"/>
	<path class="st0" d="M152.47,448.37c1.88,39.85,3.74,79.42,5.6,118.98c-0.12,0.03-0.25,0.06-0.37,0.09
		c-1.61-4.47-3.22-8.94-4.82-13.41c-7.79-21.76-15.49-43.56-23.4-65.27c-2.72-7.47-2.11-14.54,1.59-21.34
		c4.29-7.9,10.73-13.73,18.6-17.99C150.46,449.01,151.36,448.79,152.47,448.37z"/>
	<path class="st0" d="M189.55,567.81c2.03-39.7,4.06-79.41,6.1-119.4c0.94,0.32,1.71,0.47,2.37,0.83
		c9.02,4.91,16.19,11.65,20.18,21.26c2.42,5.83,2.45,11.79,0.26,17.84c-9.33,25.85-18.54,51.75-27.8,77.63
		c-0.23,0.65-0.54,1.29-0.8,1.93C189.76,567.86,189.66,567.84,189.55,567.81z"/>
	<path class="st0" d="M670.03,631.39c-3.68,0-7.27,0.07-10.85-0.07c-0.58-0.02-1.42-0.82-1.63-1.44
		c-1.92-5.47-3.76-10.96-5.52-16.48c-0.45-1.41-1.03-2.05-2.66-2.02c-7.1,0.1-14.21,0.09-21.32,0.01c-1.47-0.02-2.13,0.4-2.55,1.86
		c-1.76,6.03-3.67,12.01-5.54,18.06c-3.89,0-7.68,0-11.7,0c0.24-0.82,0.42-1.55,0.66-2.26c7.37-21.51,14.77-43.01,22.09-64.55
		c0.56-1.66,1.33-2.18,3.05-2.11c3.66,0.14,7.32-0.02,10.98,0.1c0.7,0.02,1.8,0.65,2,1.24c7.73,22.3,15.37,44.62,23.02,66.95
		C670.11,630.81,670.06,630.97,670.03,631.39z M638.37,573.58c-3.08,9.6-6.08,18.95-9.11,28.37c6.44,0,12.58,0,18.89,0
		c-3.09-9.16-6.13-18.16-9.18-27.16C638.86,574.46,638.66,574.16,638.37,573.58z"/>
	<path class="st0" d="M378.46,562.05c10.07,0.42,20.11,0.08,29.92,1.42c15,2.04,21.12,19.73,11.67,32.01
		c-4.21,5.47-10.08,7.06-16.46,7.41c-4.42,0.24-8.87,0.05-13.48,0.05c0,9.65,0,18.88,0,28.28c-3.94,0-7.71,0-11.65,0
		C378.46,608.46,378.46,585.61,378.46,562.05z M390.12,592.7c4.03,0,7.95,0.16,11.86-0.07c1.94-0.11,3.98-0.65,5.74-1.49
		c3.72-1.76,5.1-5.11,4.96-9.03c-0.14-3.92-2.01-6.81-5.83-8.18c-5.48-1.97-11.13-0.88-16.73-1.21
		C390.12,579.6,390.12,586.09,390.12,592.7z"/>
	<path class="st0" d="M903.83,631.24c0-22.94,0-45.69,0-68.62c12.42,0,24.79,0,37.32,0c0,3.29,0,6.61,0,10.13
		c-8.43,0-16.8,0-25.31,0c0,6.39,0,12.58,0,18.98c6.74,0,13.38,0,20.17,0c0,3.47,0,6.74,0,10.28c-6.65,0-13.35,0-20.18,0
		c0,6.41,0,12.55,0,18.99c9.25,0,18.52,0,27.93,0c0,3.56,0,6.83,0,10.24C930.51,631.24,917.27,631.24,903.83,631.24z"/>
	<path class="st0" d="M296.48,500.25c6.47,7.23,10,15.31,10.39,24.84c0.16,3.84-0.86,6.36-4.03,8.8
		c-23.4,17.94-46.65,36.1-69.94,54.18c-0.28,0.22-0.59,0.39-1.25,0.3C253.22,559.05,274.8,529.73,296.48,500.25z"/>
	<path class="st0" d="M504.19,511.16c5.17,3.08,10.41,4.37,15.87,4.93c4.23,0.43,8.33,0.03,11.98-2.38
		c4.88-3.22,5.67-9.85,1.25-13.64c-2.43-2.09-5.58-3.39-8.5-4.86c-4.01-2.02-8.41-3.42-12.13-5.88
		c-12.25-8.1-11.08-24.34,2.16-30.73c8.79-4.25,17.88-3.94,26.96-0.73c1.17,0.41,1.66,1.06,1.61,2.37
		c-0.11,2.57-0.03,5.15-0.03,7.66c-3.34-0.92-6.52-2.01-9.78-2.63c-3.97-0.75-8-0.81-11.83,0.88c-2.97,1.32-5.22,3.29-5.59,6.77
		c-0.38,3.69,1.45,6.26,4.48,7.91c2.56,1.39,5.37,2.33,8.02,3.58c3.43,1.6,6.98,3.03,10.17,5.03c6.91,4.32,10.01,10.7,8.86,18.85
		c-1.07,7.58-5.52,12.68-12.53,15.36c-9.93,3.79-19.83,2.88-29.51-1.12c-0.68-0.28-1.35-1.43-1.4-2.2
		C504.09,517.39,504.19,514.46,504.19,511.16z"/>
	<path class="st0" d="M255.73,483.97c-17.03,29.76-34.05,59.52-51.08,89.28c-0.16-0.06-0.32-0.12-0.48-0.18
		c0.72-3.5,1.43-7,2.15-10.5c3.51-17.18,6.92-34.38,10.55-51.53c2.18-10.3,8.5-17.51,17.78-22.18c6.47-3.26,13.42-4.81,20.58-5.45
		C255.4,483.59,255.56,483.78,255.73,483.97z"/>
	<path class="st0" d="M104,599.49c-7.66-3.51-15.32-7.02-22.98-10.53c-14.44-6.63-28.86-13.29-43.33-19.85
		c-1.55-0.7-2.07-1.5-2.06-3.2c0.08-11.05,0.04-22.09,0.04-33.88c23.18,22.62,45.93,44.83,68.68,67.03
		C104.23,599.21,104.11,599.35,104,599.49z"/>
	<path class="st0" d="M306.66,537.39c0.05,0.82,0.1,1.23,0.1,1.63c0,9.84-0.02,19.68,0.03,29.52c0.01,1.26-0.39,1.92-1.53,2.46
		c-20.38,9.68-40.73,19.39-61.1,29.09c-0.61,0.29-1.25,0.52-2.11,0.4C263.5,579.55,284.94,558.61,306.66,537.39z"/>
	<path class="st0" d="M35.52,572.97c20.68,13.62,41.34,27.23,62,40.83c-0.06,0.13-0.12,0.26-0.18,0.39
		c-6.48-1.46-12.96-2.9-19.44-4.39c-13.67-3.13-27.33-6.29-41.01-9.4c-0.98-0.22-1.74-0.32-1.73-1.65c0.05-8.4,0.03-16.8,0.05-25.2
		C35.22,573.44,35.33,573.33,35.52,572.97z"/>
	<path class="st0" d="M495.37,524.82c-3.94,0-7.72,0-11.77,0c0-0.87,0-1.64,0-2.41c0-21.11,0.03-42.21-0.05-63.32
		c-0.01-2.1,0.59-2.72,2.65-2.6c2.99,0.17,6,0.04,9.16,0.04C495.37,479.38,495.37,502.01,495.37,524.82z"/>
	<path class="st0" d="M95.83,631.3c-20.12,0-40.25,0-60.51,0c0-8.64,0-17.21,0-26.08c20.28,8.62,40.41,17.17,60.53,25.72
		C95.85,631.06,95.84,631.18,95.83,631.3z"/>
	<path class="st0" d="M249.51,614c18.93-12.48,37.85-24.96,57.09-37.64c0,8.6,0,16.79,0,25.27c-18.83,4.33-37.79,8.69-56.74,13.05
		C249.74,614.46,249.63,614.23,249.51,614z"/>
	<path class="st0" d="M306.71,607.31c0,8.12,0,15.93,0,23.91c-18.49,0-36.95,0-56.06,0C269.59,623.14,288.01,615.28,306.71,607.31z"
		/>
	<path class="st0" d="M978.35,617.03c0,7.97-6.37,14.35-14.34,14.36c-7.94,0.01-14.38-6.35-14.47-14.29
		c-0.09-7.89,6.63-14.61,14.52-14.53C972.02,602.64,978.35,609.06,978.35,617.03z M975.76,617.07c0-6.73-5.12-11.92-11.78-11.92
		c-6.59,0-11.91,5.34-11.87,11.92c0.05,6.65,5.25,11.74,11.97,11.73C970.71,628.79,975.76,623.71,975.76,617.07z"/>
	<path class="st0" d="M971.02,625.1c-1.96,0.54-3.22,0.21-3.96-1.64c-0.47-1.18-1.37-2.2-1.88-3.37c-0.77-1.78-1.91-2.6-4.16-1.76
		c0,2.08,0,4.4,0,6.84c-0.98,0-1.66,0-2.49,0c0-5.37,0-10.71,0-16.14c2.89,0,5.75-0.21,8.56,0.07c1.96,0.2,3.36,1.51,3.51,3.73
		c0.17,2.41-0.66,3.8-2.86,4.73c-0.46,0.19-0.93,0.36-1.55,0.6C967.82,620.51,969.39,622.77,971.02,625.1z M961.07,610.72
		c0,1.92,0,3.45,0,5.15c1.61,0,3.1,0.04,4.58-0.01c1.39-0.04,2.3-0.67,2.37-2.19c0.07-1.46-0.64-2.36-2.02-2.56
		C964.46,610.89,962.9,610.86,961.07,610.72z"/>
</g>
</svg>
