<?xml version="1.0" encoding="utf-8"?>
<!-- Generator: Adobe Illustrator 23.0.0, SVG Export Plug-In . SVG Version: 6.00 Build 0)  -->
<svg version="1.1" id="Layer_1" xmlns="http://www.w3.org/2000/svg" xmlns:xlink="http://www.w3.org/1999/xlink" x="0px" y="0px"
	 viewBox="0 0 1000 1000" style="enable-background:new 0 0 1000 1000;" xml:space="preserve">
<style type="text/css">
	.st0{fill:#FFFFFF;}
</style>
<g>
	<path class="st0" d="M665.75,422.17c84.79,0,169.59,0,254.38,0c0,79.77,0,159.53,0,239.3c-84.79,0-169.59,0-254.38,0
		c0.01-0.52,0.04-1.04,0.04-1.56c0-78.73,0-157.45,0-236.18C665.78,423.22,665.76,422.7,665.75,422.17z M869.45,582.15
		c-1.09,0.65-2.06,1.21-3.02,1.79c-17,10.37-35.16,17.34-55.19,18.73c-12.66,0.88-25.04-0.55-36.96-5.11
		c-10.14-3.88-18.89-9.76-25.79-18.22c-7.56-9.27-11.52-19.97-12.47-31.85c-0.89-11.14,0.85-21.8,5.89-31.81
		c7.43-14.73,19.39-24.36,34.65-30.05c15.25-5.69,30.93-5.79,46.74-2.98c13.02,2.32,25.13,7.19,36.79,13.29
		c2.5,1.31,4.97,2.66,7.59,4.06c0.05-0.37,0.09-0.54,0.09-0.71c0-10.1-0.01-20.2,0.03-30.3c0-0.91-0.52-1.09-1.15-1.31
		c-7.76-2.7-15.45-5.66-23.3-8.04c-17.15-5.2-34.66-7.37-52.58-5.36c-12.41,1.4-24.34,4.47-35.61,9.9
		c-17.06,8.23-30.62,20.27-39.93,36.89c-5.96,10.63-9.34,22.04-10.56,34.16c-0.88,8.8-0.59,17.53,1.63,26.08
		c7.49,28.78,25.17,48.88,52.37,60.63c12.93,5.58,26.58,7.93,40.61,8.24c12.83,0.28,25.53-0.78,38.06-3.67
		c10.88-2.51,21.19-6.54,31.21-11.41c0.85-0.41,0.98-0.95,0.98-1.78c-0.02-9.96-0.01-19.92-0.02-29.87
		C869.51,583.08,869.48,582.71,869.45,582.15z"/>
	<path class="st0" d="M334.25,661.48c-84.79,0-169.59,0-254.38,0c0-79.77,0-159.53,0-239.3c84.79,0,169.59,0,254.38,0
		c-0.01,0.52-0.04,1.04-0.04,1.56c0,78.73,0,157.45,0,236.18C334.22,660.43,334.24,660.95,334.25,661.48z M146.68,628.05
		c0.8,0,1.41,0,2.03,0c20.96,0,41.92,0.01,62.88,0c8.66-0.01,17.18-1.16,25.49-3.6c9.4-2.76,17.97-7,24.73-14.34
		c6.69-7.26,10.84-15.77,11.74-25.6c0.95-10.33-1.42-20-7.45-28.53c-7.14-10.1-17.26-15.93-28.91-19.41
		c-0.27-0.08-0.52-0.22-0.94-0.39c0.63-0.36,1.08-0.62,1.53-0.86c5.34-2.94,10.09-6.61,13.63-11.61c6.29-8.88,7.65-18.99,6.16-29.43
		c-1.71-11.98-8.1-21.26-18.01-28.08c-10.22-7.03-21.78-10.15-34.01-10.33c-19.34-0.28-38.7-0.1-58.04-0.11
		c-0.27,0-0.53,0.06-0.84,0.09C146.68,513.24,146.68,570.55,146.68,628.05z"/>
	<path class="st0" d="M627.05,661.48c-84.7,0-169.4,0-254.1,0c-0.05-0.56-0.13-1.12-0.13-1.69c-0.01-78.64-0.01-157.29,0-235.93
		c0-0.56,0.09-1.12,0.13-1.69c84.7,0,169.4,0,254.1,0c0.05,0.56,0.13,1.12,0.13,1.69c0.01,78.64,0.01,157.29,0,235.93
		C627.18,660.35,627.09,660.91,627.05,661.48z M439.64,627.94c0.44,0.04,0.81,0.11,1.18,0.1c22.47-0.03,44.95,0,67.42-0.14
		c8.08-0.05,15.99-1.58,23.7-4.04c10.28-3.28,19.22-8.58,25.87-17.33c11.86-15.61,11.97-36.9-0.03-52.34
		c-6.61-8.5-15.55-13.68-25.63-17.05c-0.94-0.31-1.89-0.58-3.05-0.94c0.51-0.27,0.76-0.39,1.01-0.53
		c6.08-3.3,11.49-7.41,15.23-13.33c5.04-7.97,6.35-16.82,5.48-26.04c-1.09-11.56-6.53-20.86-15.48-28.04
		c-10.68-8.57-23.28-12.16-36.71-12.4c-19.34-0.34-38.69-0.11-58.04-0.12c-0.31,0-0.63,0.07-0.95,0.11
		C439.64,513.26,439.64,570.56,439.64,627.94z"/>
	<path class="st0" d="M177.51,601.08c0-15.68,0-31.25,0-46.91c1.76,0,3.45,0,5.14,0c9.15,0.01,18.3-0.14,27.45,0.09
		c7.28,0.18,14.4,1.46,20.91,5c7.45,4.05,11.32,10.24,11.08,18.82c-0.23,8.5-4.23,14.62-11.73,18.52c-5,2.6-10.39,4.02-15.94,4.18
		c-12.12,0.35-24.26,0.29-36.39,0.39C177.9,601.17,177.77,601.12,177.51,601.08z"/>
	<path class="st0" d="M177.51,527.14c0-14.89,0-29.67,0-44.51c0.34-0.03,0.61-0.09,0.88-0.08c8.25,0.08,16.5,0.05,24.74,0.29
		c4.75,0.14,9.37,1.19,13.66,3.39c5.84,2.99,8.97,7.86,9.57,14.31c0.37,3.93,0.13,7.85-1.22,11.62
		c-2.36,6.56-7.36,10.24-13.68,12.42c-4.73,1.63-9.65,2.4-14.63,2.52C190.45,527.26,184.05,527.14,177.51,527.14z"/>
	<path class="st0" d="M470.5,601.06c0-15.61,0-31.19,0-46.9c0.5-0.03,0.95-0.09,1.41-0.09c10.38,0.04,20.76-0.05,31.14,0.18
		c7.09,0.16,14.01,1.41,20.42,4.71c7.46,3.84,11.64,9.82,11.66,18.34c0.01,8.75-3.91,15.21-11.7,19.27
		c-4.94,2.58-10.29,4.03-15.78,4.19c-12.17,0.36-24.35,0.3-36.53,0.4C470.92,601.18,470.75,601.11,470.5,601.06z"/>
	<path class="st0" d="M470.52,482.63c0.45-0.03,0.82-0.09,1.19-0.09c8.15,0.08,16.3,0.02,24.44,0.3c5.23,0.18,10.31,1.35,14.89,4.1
		c4.78,2.87,7.45,7.15,8.17,12.64c0.76,5.78,0.2,11.36-2.97,16.41c-3.19,5.07-8.16,7.61-13.7,9.18c-4.99,1.41-10.11,1.99-15.29,2.03
		c-5.26,0.04-10.52,0.01-15.78,0.01c-0.28,0-0.55-0.03-0.94-0.05C470.52,512.29,470.52,497.49,470.52,482.63z"/>
</g>
</svg>
